<svg xmlns="http://www.w3.org/2000/svg" viewBox="0 0 32 32">
<!-- Define the animations -->
<defs>
<style>
@keyframes pulse {
0%, 100% { transform: scale(1); }
50% { transform: scale(1.1); }
}
.letters {
animation: pulse 2s ease-in-out infinite;
transform-origin: center;
}
</style>
</defs>

<!-- Background circle -->
<circle cx="16" cy="16" r="16" fill="#7c3aed"/>

<!-- Animated HJ with cursive style -->
<g class="letters" fill="white">
<!-- H with flourish -->
<path d="M5 8c0 0 1 0 1.5 0c0.5 0 1 0.2 1 2v12c0 1.8-0.5 2-1 2h-1.5v-16z
        M11 8c0 0 1 0 1.5 0c0.5 0 1 0.2 1 2v12c0 1.8-0.5 2-1 2h-1.5v-16z
        M5.5 15.5c0 0 3 0.5 7 0.5" 
    stroke="white" 
    stroke-width="1"/>

<!-- J with flourish -->
<path d="M24 8v11.5c0,4-3,4.5-5.5,4.5c-1.5,0-3-0.5-3.5-1" 
    fill="none"
    stroke="white" 
    stroke-width="2"
    stroke-linecap="round"
    stroke-linejoin="round"/>
</g>
</svg>